<svg xmlns="http://www.w3.org/2000/svg" viewBox="0 0 256 256" fill="none">
  <defs>
    <linearGradient id="bg" x1="32" y1="24" x2="220" y2="232" gradientUnits="userSpaceOnUse">
      <stop stop-color="#fb923c"/>
      <stop offset="0.55" stop-color="#f97316"/>
      <stop offset="1" stop-color="#f59e0b"/>
    </linearGradient>
    <linearGradient id="glow" x1="70" y1="70" x2="186" y2="186" gradientUnits="userSpaceOnUse">
      <stop stop-color="#fff7ed" stop-opacity="0.95"/>
      <stop offset="1" stop-color="#ffffff" stop-opacity="0.7"/>
    </linearGradient>
  </defs>
  <rect x="16" y="16" width="224" height="224" rx="56" fill="url(#bg)"/>
  <circle cx="190" cy="66" r="18" fill="#fff7ed" fill-opacity="0.45"/>
  <path d="M72 88c0-8.837 7.163-16 16-16h78c8.837 0 16 7.163 16 16v12c0 8.837-7.163 16-16 16H88c-8.837 0-16-7.163-16-16V88Z" fill="url(#glow)"/>
  <path d="M72 146c0-8.837 7.163-16 16-16h58c8.837 0 16 7.163 16 16v22c0 8.837-7.163 16-16 16H88c-8.837 0-16-7.163-16-16v-22Z" fill="#fff" fill-opacity="0.82"/>
  <path d="M95 96h64M95 158h44" stroke="#c2410c" stroke-width="12" stroke-linecap="round"/>
  <path d="M171 146l25 22" stroke="#7c2d12" stroke-width="14" stroke-linecap="round"/>
  <circle cx="161" cy="138" r="24" stroke="#7c2d12" stroke-width="12"/>
</svg>
